# xmcd CD database file
# Copyright (C) 1996 Ti Kan
#
# Track frame offsets:
# 	187
# 	12917
# 	21967
# 	32005
# 	41400
# 	51247
# 	61490
# 	71807
# 	82802
# 	92610
# 	103170
# 	113010
#
# Disc length: 1652 seconds
#
# Revision: 1
# Processed by: cddbd v1.4b41PL1 Copyright (c) Steve Scherf et al.
# Submitted via: DiscPlay 3.4.1
#
DISCID=9506720c
DTITLE=Bob Wills and the Texas Playboys - The Best of Bob Wills
DYEAR=1900
DGENRE=
TTITLE0=San Antonio Rose
TTITLE1=Eight'r From Decatur
TTITLE2=Deep in the Heart of Texas
TTITLE3=Silver Bells (That Ring in the Night)
TTITLE4=Across the Valley From the Alamo
TTITLE5=Cimarron
TTITLE6=South of the Border (Down Mexico Way)
TTITLE7=Milk Cow Blues
TTITLE8=My Adobe Hacienda
TTITLE9=Southwestern Waltz
TTITLE10=A Big Ball in Cowtown (We'll Dance Around)
TTITLE11=Pan Handle Rag
EXTD=
EXTT0=
EXTT1=
EXTT2=
EXTT3=
EXTT4=
EXTT5=
EXTT6=
EXTT7=
EXTT8=
EXTT9=
EXTT10=
EXTT11=
PLAYORDER=
